<svg width="261" height="337" viewBox="0 0 261 337" fill="none" xmlns="http://www.w3.org/2000/svg">
<path d="M146.238 0C180.007 0 207.512 10.4021 228.753 31.2062C249.994 51.6903 260.615 82.8965 260.615 124.825V210.762C260.615 251.73 249.858 282.936 228.344 304.381C206.831 325.505 179.462 336.067 146.238 336.067H0V0H146.238ZM140.52 217.483V118.584C140.52 110.262 140.383 104.341 140.111 100.82C139.839 97.2994 138.613 94.2588 136.435 91.6983C134.529 88.8177 131.533 87.3775 127.448 87.3775H120.095V248.21H127.448C131.533 248.21 134.529 246.929 136.435 244.369C138.613 241.488 139.839 238.448 140.111 235.247C140.383 231.726 140.52 225.805 140.52 217.483Z" fill="#F9F9F9"/>
</svg>
