<svg width="125" height="19" viewBox="0 0 125 19" fill="none" xmlns="http://www.w3.org/2000/svg">
<path d="M7.57081 0.497146C9.31901 0.497146 10.7429 1.03572 11.8426 2.11287C12.9423 3.17345 13.4921 4.78918 13.4921 6.96005V11.4095C13.4921 13.5307 12.9352 15.1464 11.8215 16.2567C10.7077 17.3504 9.29081 17.8973 7.57081 17.8973H0V0.497146H7.57081ZM7.27475 11.7575V6.63691C7.27475 6.20605 7.2677 5.89947 7.2536 5.71719C7.2395 5.5349 7.17606 5.37747 7.06327 5.2449C6.96458 5.09575 6.8095 5.02118 6.59803 5.02118H6.21737V13.3484H6.59803C6.8095 13.3484 6.96458 13.2821 7.06327 13.1495C7.17606 13.0004 7.2395 12.843 7.2536 12.6772C7.2677 12.495 7.27475 12.1884 7.27475 11.7575Z" fill="#F9F9F9"/>
<path d="M22.1196 17.8973L21.9505 16.3064H19.1167L18.9052 17.8973H12.8147L16.5367 0.472289H24.8688L28.6542 17.8973H22.1196ZM19.6877 11.6829H21.4429L20.6816 4.59861H20.597L19.6877 11.6829Z" fill="#F9F9F9"/>
<path d="M28.5731 17.8973V0.497146H34.5367L36.6092 5.61776H36.6938V0.497146H42.6362V17.8973H36.736L34.6001 13.0004H34.5156V17.8973H28.5731Z" fill="#F9F9F9"/>
<path d="M46.1181 17.8973V0.497146H52.0817L54.1542 5.61776H54.2388V0.497146H60.1812V17.8973H54.2811L52.1452 13.0004H52.0606V17.8973H46.1181Z" fill="#F9F9F9"/>
<path d="M69.3943 17.8973L69.2251 16.3064H66.3913L66.1798 17.8973H60.0894L63.8113 0.472289H72.1434L75.9288 17.8973H69.3943ZM66.9623 11.6829H68.7175L67.9562 4.59861H67.8716L66.9623 11.6829Z" fill="#F9F9F9"/>
<path d="M75.8477 17.8973V0.497146H81.8113L83.8838 5.61776H83.9684V0.497146H89.9108V17.8973H84.0107L81.8748 13.0004H81.7902V17.8973H75.8477Z" fill="#F9F9F9"/>
<path d="M99.1239 17.8973L98.9547 16.3064H96.1209L95.9094 17.8973H89.819L93.5409 0.472289H101.873L105.658 17.8973H99.1239ZM96.6919 11.6829H98.4472L97.6858 4.59861H97.6012L96.6919 11.6829Z" fill="#F9F9F9"/>
<path d="M111.484 18.3447C108.312 18.3447 106.169 16.9361 105.055 14.119L108.502 11.5587C109.334 13.0004 110.328 13.7212 111.484 13.7212C112.231 13.7212 112.605 13.4644 112.605 12.9507V12.9258C112.605 12.7932 112.577 12.669 112.52 12.553C112.464 12.437 112.365 12.3292 112.224 12.2298C112.097 12.1138 111.977 12.0144 111.865 11.9315C111.752 11.8487 111.576 11.7575 111.336 11.6581C111.096 11.5421 110.906 11.4592 110.765 11.4095C110.624 11.3432 110.398 11.2521 110.088 11.1361C109.778 11.0035 109.552 10.9124 109.411 10.8627C106.789 9.83522 105.478 8.06206 105.478 5.54318V5.17032C105.478 3.6126 106.049 2.36145 107.191 1.41687C108.347 0.472289 109.905 0 111.865 0C115.206 0 117.314 1.46658 118.188 4.39975L114.487 6.16462C114.219 5.60118 113.824 5.1869 113.303 4.92175C112.795 4.65661 112.288 4.52403 111.78 4.52403C111.188 4.52403 110.892 4.72289 110.892 5.12061V5.17032C110.892 5.26975 110.913 5.36918 110.955 5.46861C111.012 5.56804 111.096 5.66747 111.209 5.7669C111.336 5.84976 111.449 5.92433 111.547 5.99062C111.66 6.0569 111.815 6.13976 112.013 6.23919C112.224 6.32205 112.393 6.38833 112.52 6.43805C112.647 6.48776 112.837 6.56233 113.091 6.66176C113.359 6.74462 113.556 6.81091 113.683 6.86062C114.346 7.1092 114.917 7.36605 115.396 7.6312C115.876 7.89634 116.355 8.25263 116.834 8.70007C117.314 9.13093 117.68 9.67779 117.934 10.3406C118.188 10.9869 118.315 11.7327 118.315 12.5778V12.901C118.315 14.5415 117.701 15.859 116.475 16.8533C115.262 17.8476 113.599 18.3447 111.484 18.3447Z" fill="#F9F9F9"/>
<path d="M118.719 17.8973V0.497146H125V17.8973H118.719Z" fill="#F9F9F9"/>
</svg>
